<svg width="200" height="200" viewBox="0 0 200 200" fill="none" xmlns="http://www.w3.org/2000/svg">
  <!-- Fundo circular rosa suave -->
  <circle cx="100" cy="100" r="95" fill="#FFC0CB" fill-opacity="0.3"/>
  
  <!-- Mãe -->
  <g id="mother">
    <!-- Cabeça da mãe -->
    <ellipse cx="85" cy="70" rx="18" ry="22" fill="#F5D5B8"/>
    
    <!-- Cabelo da mãe -->
    <path d="M67 65 Q67 50 85 48 Q103 50 103 65 L103 80 Q95 82 85 82 Q75 82 67 80 Z" fill="#C4915F"/>
    <path d="M67 65 Q67 75 75 85 L95 85 Q103 75 103 65" fill="#C4915F"/>
    
    <!-- Olhos fechados -->
    <path d="M78 68 Q80 70 82 68" stroke="#8B4513" stroke-width="1.5" stroke-linecap="round" fill="none"/>
    <path d="M88 68 Q90 70 92 68" stroke="#8B4513" stroke-width="1.5" stroke-linecap="round" fill="none"/>
    
    <!-- Sorriso suave -->
    <path d="M80 75 Q85 77 90 75" stroke="#8B4513" stroke-width="1.5" stroke-linecap="round" fill="none"/>
    
    <!-- Corpo da mãe (blusa rosa) -->
    <ellipse cx="90" cy="115" rx="35" ry="45" fill="#FFB6C1"/>
    
    <!-- Braços -->
    <ellipse cx="60" cy="110" rx="12" ry="35" fill="#FFB6C1" transform="rotate(-20 60 110)"/>
    <ellipse cx="120" cy="110" rx="12" ry="35" fill="#FFB6C1" transform="rotate(20 120 110)"/>
    
    <!-- Mãos -->
    <circle cx="55" cy="130" r="8" fill="#F5D5B8"/>
    <circle cx="115" cy="130" r="8" fill="#F5D5B8"/>
  </g>
  
  <!-- Bebê -->
  <g id="baby">
    <!-- Cabeça do bebê -->
    <circle cx="95" cy="120" r="14" fill="#F5D5B8"/>
    
    <!-- Olhos fechados do bebê -->
    <path d="M90 118 Q91 119 92 118" stroke="#8B4513" stroke-width="1" stroke-linecap="round" fill="none"/>
    <path d="M98 118 Q99 119 100 118" stroke="#8B4513" stroke-width="1" stroke-linecap="round" fill="none"/>
    
    <!-- Corpo do bebê (roupa azul) -->
    <ellipse cx="95" cy="142" rx="16" ry="20" fill="#87CEEB"/>
    
    <!-- Braços do bebê -->
    <ellipse cx="78" cy="140" rx="6" ry="15" fill="#87CEEB" transform="rotate(-10 78 140)"/>
    <ellipse cx="112" cy="140" rx="6" ry="15" fill="#87CEEB" transform="rotate(10 112 140)"/>
  </g>
  
  <!-- Contornos -->
  <g stroke="#5D4037" stroke-width="2" fill="none">
    <!-- Contorno da mãe -->
    <ellipse cx="85" cy="70" rx="18" ry="22"/>
    <path d="M67 65 Q67 50 85 48 Q103 50 103 65 L103 80 Q95 82 85 82 Q75 82 67 80 Z"/>
    <ellipse cx="90" cy="115" rx="35" ry="45"/>
    
    <!-- Contorno do bebê -->
    <circle cx="95" cy="120" r="14"/>
    <ellipse cx="95" cy="142" rx="16" ry="20"/>
  </g>
  
  <!-- Coração flutuante decorativo -->
  <g id="heart" opacity="0.6">
    <path d="M100 50 L102 48 Q105 45 108 48 Q111 51 108 54 L100 62 L92 54 Q89 51 92 48 Q95 45 98 48 Z" fill="#FF69B4"/>
  </g>
</svg>
