<svg width="192" height="192" viewBox="0 0 192 192" fill="none" xmlns="http://www.w3.org/2000/svg">
  <rect width="192" height="192" rx="32" fill="url(#gradient)" />
  
  <!-- Baby silhouette -->
  <circle cx="96" cy="80" r="24" fill="white" opacity="0.9" />
  <ellipse cx="96" cy="120" rx="30" ry="36" fill="white" opacity="0.9" />
  
  <!-- Heart -->
  <path d="M96 140 C90 134, 80 128, 80 118 C80 112, 85 108, 91 108 C93 108, 95 109, 96 111 C97 109, 99 108, 101 108 C107 108, 112 112, 112 118 C112 128, 102 134, 96 140 Z" 
        fill="#ec4899" />
  
  <!-- Decorative elements -->
  <circle cx="140" cy="50" r="4" fill="white" opacity="0.7" />
  <circle cx="52" cy="40" r="3" fill="white" opacity="0.6" />
  <circle cx="150" cy="130" r="5" fill="white" opacity="0.5" />
  <circle cx="42" cy="150" r="4" fill="white" opacity="0.6" />
  
  <defs>
    <linearGradient id="gradient" x1="0%" y1="0%" x2="100%" y2="100%">
      <stop offset="0%" style="stop-color:#ec4899;stop-opacity:1" />
      <stop offset="50%" style="stop-color:#f472b6;stop-opacity:1" />
      <stop offset="100%" style="stop-color:#93c5fd;stop-opacity:1" />
    </linearGradient>
  </defs>
</svg>